<svg class="iozwt white" width="106" height="41" viewBox="0 0 106 41" fill="none" xmlns="http://www.w3.org/2000/svg">
                  <path class="finmcf" fill-rule="evenodd" clip-rule="evenodd" d="M47.6479 20.5592H42.3042V25.1878H50.2351V26.8902C50.2351 27.3437 50.0478 27.7785 49.7144 28.0992C49.3809 28.4198 48.9287 28.5999 48.4572 28.5999H38.5964V13.1937C38.5964 12.7428 38.7827 12.3104 39.1143 11.9916C39.4458 11.6728 39.8955 11.4937 40.3644 11.4937H50.1006V13.1339C50.1 13.6034 49.9055 14.0535 49.56 14.3853C49.2145 14.7171 48.7462 14.9034 48.258 14.9034H42.3042V17.1973H49.4283V18.8471C49.4283 19.3012 49.2407 19.7367 48.9068 20.0577C48.573 20.3788 48.1201 20.5592 47.6479 20.5592ZM68.2012 13.1482V28.6023H69.9243C70.1506 28.6023 70.3747 28.5594 70.5838 28.4762C70.7928 28.3929 70.9828 28.2708 71.1428 28.117C71.3028 27.9631 71.4297 27.7805 71.5163 27.5794C71.6029 27.3784 71.6475 27.1629 71.6475 26.9453V11.4937H69.9219C69.4655 11.4937 69.0279 11.668 68.7052 11.9783C68.3825 12.2886 68.2012 12.7094 68.2012 13.1482ZM60.2901 15.3991C58.4723 15.3991 57.1376 15.9905 56.306 17.1973V15.7606H54.6027H54.5604C54.1075 15.7663 53.6752 15.9434 53.3573 16.2537C53.0394 16.5639 52.8615 16.9821 52.8622 17.4176V17.5014V28.5999H56.306V21.6559C56.306 19.5248 57.4564 18.4712 59.2443 18.4712C60.8479 18.4712 61.8887 19.3955 61.8887 21.1051V26.919C61.8887 27.3591 62.0705 27.7811 62.3942 28.0923C62.7178 28.4035 63.1567 28.5783 63.6144 28.5783H65.335V20.7172C65.335 19.0411 64.8544 17.7624 63.8933 16.8118C62.9321 15.8612 61.7592 15.3991 60.2901 15.3991ZM80.6663 15.3991C82.5289 15.3991 83.9781 16.0168 85.019 17.274C85.0197 16.8722 85.1859 16.487 85.4814 16.2029C85.7768 15.9188 86.1774 15.7589 86.5952 15.7582H88.4653V27.1967C88.4653 27.5727 88.31 27.9332 88.0335 28.1991C87.7571 28.4649 87.3821 28.6143 86.9912 28.6143H85.019V27.0986C83.9781 28.3581 82.5364 28.9734 80.6663 28.9734C79.799 28.9813 78.9401 28.8101 78.1475 28.4714C77.3549 28.1327 76.6472 27.6343 76.0721 27.01C74.8496 25.6809 74.1747 23.9678 74.1747 22.1934C74.1747 20.4191 74.8496 18.706 76.0721 17.3769C77.352 16.0671 78.876 15.3991 80.6663 15.3991ZM81.3063 25.8032C82.2877 25.8032 83.2326 25.4455 83.9507 24.8022C84.3072 24.4572 84.5861 24.0453 84.7698 23.5921C84.9536 23.139 85.0384 22.6543 85.019 22.1683C85.0391 21.6883 84.9544 21.2096 84.7704 20.7629C84.5864 20.3163 84.3072 19.9117 83.9507 19.5751C83.241 18.9161 82.2929 18.5478 81.3063 18.5478C80.3197 18.5478 79.3716 18.9161 78.6618 19.5751C78.3144 19.9168 78.043 20.323 77.8641 20.7688C77.6852 21.2146 77.6024 21.6908 77.621 22.1683C77.6031 22.6519 77.686 23.134 77.8648 23.5863C78.0435 24.0387 78.3145 24.4521 78.6618 24.8022C79.3799 25.4455 80.3248 25.8032 81.3063 25.8032ZM104.078 17.3769C103.505 16.7495 102.798 16.2481 102.005 15.9068C101.212 15.5655 100.353 15.3924 99.4841 15.3991C97.614 15.3991 96.1722 16.0169 95.1563 17.274V11.4937H93.4381C92.9798 11.4937 92.5403 11.6687 92.2162 11.9804C91.8921 12.292 91.71 12.7147 91.71 13.1554V28.6023H93.4332C93.8658 28.6038 94.2832 28.4488 94.6025 28.168C94.9217 27.8871 95.1194 27.5011 95.1563 27.0866C96.1722 28.3461 97.614 28.9615 99.4841 28.9615C100.351 28.9732 101.21 28.8049 102.003 28.4681C102.796 28.1313 103.504 27.634 104.078 27.01C105.316 25.6878 106 23.9721 106 22.1934C106 20.4148 105.316 18.699 104.078 17.3769ZM101.486 24.8C100.768 25.4432 99.823 25.8008 98.8416 25.8008C97.8602 25.8008 96.9152 25.4431 96.1972 24.7999C95.8499 24.4497 95.5789 24.0363 95.4001 23.584C95.2214 23.1316 95.1385 22.6495 95.1563 22.1659C95.1378 21.6884 95.2205 21.2122 95.3995 20.7664C95.5784 20.3206 95.8498 19.9144 96.1972 19.5727C96.9069 18.9137 97.855 18.5454 98.8416 18.5454C99.8282 18.5454 100.776 18.9137 101.486 19.5727C101.843 19.9093 102.122 20.3139 102.306 20.7605C102.49 21.2072 102.574 21.6859 102.554 22.1659C102.574 22.6525 102.489 23.1377 102.305 23.5913C102.121 24.0439 101.842 24.4553 101.486 24.8Z" fill="#0C152A"></path>
                  <path class="xxqfw" d="M20.7897 14.1274C22.3641 14.1274 23.8741 14.7289 24.9873 15.7994C26.1006 16.87 26.7261 18.3219 26.7261 19.8359C26.7261 20.5856 26.5725 21.3279 26.2742 22.0204C25.9759 22.713 25.5386 23.3423 24.9873 23.8724C24.4361 24.4025 23.7817 24.823 23.0615 25.1099C22.3412 25.3967 21.5693 25.5444 20.7897 25.5444H14.8434V19.8335C14.8437 19.0833 14.9978 18.3404 15.2969 17.6475C15.596 16.9546 16.0342 16.3251 16.5865 15.7952C17.1388 15.2652 17.7942 14.8452 18.5155 14.559C19.2367 14.2728 20.0095 14.1262 20.7897 14.1274Z" fill="#ED145B"></path>
                  <path class="jdmhen" d="M5.82443 0H20.7998C21.5794 0 22.3513 0.14765 23.0715 0.434528C23.7918 0.721405 24.4462 1.14188 24.9974 1.67196C25.5487 2.20205 25.9859 2.83134 26.2843 3.52393C26.5826 4.21651 26.7362 4.95883 26.7362 5.70848C26.7362 7.22246 26.1107 8.67443 24.9974 9.74497C23.8842 10.8155 22.3742 11.4169 20.7998 11.4169H0.00012207V5.59832C0.000782297 4.11334 0.61472 2.68938 1.70692 1.63956C2.79912 0.589743 4.28016 -1.35716e-07 5.82443 0Z" fill="#FAA61A"></path>
                  <path class="kyzos" d="M20.7947 28.6501H11.8827V20.0802C11.8827 18.5649 11.2567 17.1118 10.1425 16.0403C9.02831 14.9689 7.5171 14.3669 5.94136 14.3669H2.16323e-05V34.3634C-0.0013382 34.8479 0.0614177 35.3307 0.186778 35.8001C0.259541 36.0723 0.353603 36.3388 0.468159 36.5974C0.54208 36.7675 0.625196 36.9337 0.717167 37.0955C0.853311 37.3385 1.00812 37.5714 1.18032 37.7923C1.35218 38.011 1.53937 38.2182 1.74059 38.4124C2.29135 38.9443 2.94604 39.3662 3.66697 39.6538C4.38789 39.9415 5.16083 40.0892 5.94136 40.0886H20.7947C21.5749 40.0886 22.3475 39.9408 23.0684 39.6537C23.7892 39.3666 24.4442 38.9457 24.9959 38.4152C25.5476 37.8847 25.9852 37.2549 26.2838 36.5617C26.5824 35.8685 26.736 35.1256 26.736 34.3753C26.7377 33.624 26.5852 32.8798 26.2874 32.1853C25.9895 31.4907 25.5522 30.8595 25.0003 30.3277C24.4484 29.7959 23.7929 29.374 23.0712 29.0861C22.3496 28.7983 21.576 28.6501 20.7947 28.6501Z" fill="#00AEEF"></path>
                </svg>